<?xml version="1.0" standalone="no"?><!DOCTYPE svg PUBLIC "-//W3C//DTD SVG 1.1//EN" "http://www.w3.org/Graphics/SVG/1.1/DTD/svg11.dtd"><svg t="1574045965869" class="icon" viewBox="0 0 1660 1024" version="1.1" xmlns="http://www.w3.org/2000/svg" p-id="3793" xmlns:xlink="http://www.w3.org/1999/xlink" width="324.21875" height="200"><defs><style type="text/css"></style></defs><path d="M842.86463 0H23.967263A23.967263 23.967263 0 0 0 0 23.967263v818.897367a23.967263 23.967263 0 0 0 23.967263 23.967264h818.897367a23.967263 23.967263 0 0 0 23.967264-23.967264V23.967263A23.967263 23.967263 0 0 0 842.86463 0zM812.66482 78.144918v296.135907a23.967263 23.967263 0 0 1-23.967263 23.967263h-94.377051a23.967263 23.967263 0 0 1-17.724135-7.840945l-47.839293-52.569256a28.85595 28.85595 0 0 1-1.841193-2.296201 34.189063 34.189063 0 0 0-61.436614 16.274459 23.279461 23.279461 0 0 1-0.878271 3.989253l-31.257967 103.826396c-7.100236 23.575745-40.855454 22.422354-46.326127-1.576654l-63.690489-279.353532a35.014426 35.014426 0 0 0-65.785641-5.290787 21.66048 21.66048 0 0 0-0.751291 2.116315L265.026082 479.239449a23.967263 23.967263 0 0 1-40.633241 9.258877l-72.208655-78.853883a33.734055 33.734055 0 0 0-25.194726-10.994255H78.144918a23.967263 23.967263 0 0 1-23.967263-23.967263V78.144918A23.967263 23.967263 0 0 1 78.144918 54.177655h710.542058A23.967263 23.967263 0 0 1 812.66482 78.144918zM788.697557 812.66482H78.144918a23.967263 23.967263 0 0 1-23.967263-23.967263V490.434754a23.967263 23.967263 0 0 1 23.967263-23.967263h23.554582a23.967263 23.967263 0 0 1 17.681809 7.777456l122.746249 134.057951a35.035589 35.035589 0 0 0 57.383871-9.724466 21.692225 21.692225 0 0 0 0.751292-2.116315l58.547844-193.854421c7.110817-23.554582 40.855454-22.390609 46.326127 1.597818l64.208987 281.469847a34.136155 34.136155 0 0 0 66.663911-1.587236 28.707808 28.707808 0 0 1 0.687802-2.952259l65.457612-217.715868a23.967263 23.967263 0 0 1 40.675567-9.248295 32.802877 32.802877 0 0 0 9.862026 7.47059 33.511842 33.511842 0 0 0 16.845865 4.444261h119.169677a23.967263 23.967263 0 0 1 23.967263 23.967263v298.633159A23.967263 23.967263 0 0 1 788.686976 812.66482z m23.967263 0" p-id="3794"></path></svg>