<?xml version="1.0" standalone="no"?><!DOCTYPE svg PUBLIC "-//W3C//DTD SVG 1.1//EN" "http://www.w3.org/Graphics/SVG/1.1/DTD/svg11.dtd"><svg t="1574046081774" class="icon" viewBox="0 0 1129 1024" version="1.1" xmlns="http://www.w3.org/2000/svg" p-id="4996" xmlns:xlink="http://www.w3.org/1999/xlink" width="220.5078125" height="200"><defs><style type="text/css"></style></defs><path d="M739.824443 807.584065h78.130993l16.594193-226.787306h-110.627954l15.902768 226.787306zM729.453072 844.229575H829.709656v72.599594h-100.256584zM298.695476 952.09183H95.41661a24.199865 24.199865 0 0 1-26.274139-23.50844v-829.709656A24.199865 24.199865 0 0 1 95.41661 69.142471H691.424713a24.199865 24.199865 0 0 1 24.199865 24.199865V311.141121a35.954085 35.954085 0 1 0 69.142471 0V95.41661A95.41661 95.41661 0 0 0 691.424713 0H95.41661A95.41661 95.41661 0 0 0 0 95.41661v833.16678a95.41661 95.41661 0 0 0 95.41661 95.41661h203.278866a36.64551 36.64551 0 0 0 35.954085-35.954085 35.954085 35.954085 0 0 0-35.954085-35.954085z" fill="" p-id="4997"></path><path d="M640.259284 244.072924a29.731263 29.731263 0 0 0-29.731262-29.731263H253.75287a29.731263 29.731263 0 0 0 0 59.462525h356.775152a29.731263 29.731263 0 0 0 29.731262-29.731262z" fill="" p-id="4998"></path><path d="M224.021607 392.729237m24.89129 0l247.530047 0q24.89129 0 24.89129 24.89129l0 9.679946q0 24.89129-24.89129 24.891289l-247.530047 0q-24.89129 0-24.89129-24.891289l0-9.679946q0-24.89129 24.89129-24.89129Z" fill="" p-id="4999"></path><path d="M224.021607 571.116813m24.89129 0l247.530047 0q24.89129 0 24.89129 24.89129l0 9.679946q0 24.89129-24.89129 24.891289l-247.530047 0q-24.89129 0-24.89129-24.891289l0-9.679946q0-24.89129 24.89129-24.89129Z" fill="" p-id="5000"></path><path d="M1116.650912 887.097907l-261.358542-453.574612a87.119514 87.119514 0 0 0-76.056718-44.251182 87.119514 87.119514 0 0 0-76.056719 44.251182l-262.049966 453.574612a86.428089 86.428089 0 0 0 0 87.810938 87.810939 87.810939 0 0 0 76.056718 43.559757h523.408508a87.810939 87.810939 0 0 0 76.056719-43.559757 87.119514 87.119514 0 0 0 0-87.810938z m-61.5368 51.856853a17.285618 17.285618 0 0 1-14.519919 8.297097H517.185685a17.285618 17.285618 0 0 1-14.519919-8.297097 19.359892 19.359892 0 0 1 0-16.594193l262.049967-453.574612c4.148548-6.914247 13.828494-8.988521 14.519919-7.605671a15.211344 15.211344 0 0 1 13.828494 7.605671l262.049966 453.574612a16.594193 16.594193 0 0 1 0 16.594193z" fill="" p-id="5001"></path></svg>