<?xml version="1.0" standalone="no"?><!DOCTYPE svg PUBLIC "-//W3C//DTD SVG 1.1//EN" "http://www.w3.org/Graphics/SVG/1.1/DTD/svg11.dtd"><svg t="1574134940446" class="icon" viewBox="0 0 1029 1024" version="1.1" xmlns="http://www.w3.org/2000/svg" p-id="13992" xmlns:xlink="http://www.w3.org/1999/xlink" width="200.9765625" height="200"><defs><style type="text/css"></style></defs><path d="M358.4 273.066667c-51.2 0-147.911111 34.133333-170.666667 176.355555 0 17.066667 11.377778 28.444444 22.755556 34.133334h5.688889c11.377778 0 28.444444-11.377778 28.444444-22.755556 17.066667-119.466667 102.4-125.155556 113.777778-125.155556 17.066667 0 28.444444-11.377778 28.444444-28.444444s-11.377778-34.133333-28.444444-34.133333z" p-id="13993"></path><path d="M807.822222 659.911111c56.888889-39.822222 96.711111-102.4 96.711111-176.355555 0-108.088889-79.644444-193.422222-182.044444-210.488889-45.511111-51.2-96.711111-91.022222-159.288889-113.777778v-22.755556c0-68.266667-51.2-119.466667-119.466667-119.466666-68.266667 0-119.466667 51.2-119.466666 119.466666v22.755556c-142.222222 51.2-244.622222 182.044444-244.622223 341.333333v307.2c-39.822222 11.377778-73.955556 45.511111-73.955555 91.022222 0 51.2 39.822222 96.711111 96.711111 96.711112h927.288889v-28.444445c-5.688889-136.533333-96.711111-256-221.866667-307.2z m39.822222-176.355555c0 85.333333-68.266667 153.6-153.6 153.6-85.333333 0-153.6-68.266667-153.6-153.6s68.266667-153.6 153.6-153.6c79.644444 0 153.6 68.266667 153.6 153.6z m-472.177777-341.333334c0-34.133333 28.444444-62.577778 62.577777-62.577778s62.577778 28.444444 62.577778 62.577778v5.688889c-22.755556-5.688889-39.822222-5.688889-62.577778-5.688889-22.755556 0-39.822222 0-62.577777 5.688889v-5.688889z m-278.755556 802.133334c-22.755556 0-39.822222-17.066667-39.822222-39.822223 0-22.755556 17.066667-39.822222 39.822222-39.822222h5.688889c28.444444 0 28.444444 0 28.444444-364.088889 0-170.666667 136.533333-307.2 307.2-307.2 79.644444 0 147.911111 28.444444 204.8 79.644445-91.022222 22.755556-164.977778 108.088889-164.977777 204.8 0 73.955556 39.822222 136.533333 96.711111 176.355555-119.466667 45.511111-204.8 153.6-216.177778 284.444445h-261.688889z m318.577778 0c17.066667-136.533333 130.844444-250.311111 273.066667-250.311112s261.688889 108.088889 273.066666 250.311112h-546.133333z" p-id="13994"></path></svg>