<svg t="1574045912665" class="icon" viewBox="0 0 1024 1024" version="1.1" xmlns="http://www.w3.org/2000/svg" p-id="3296" width="200" height="200"><path d="M377.6 752v-57.6h-256V140.8h784v486.4h57.6V128c0-25.6-19.2-44.8-44.8-44.8H105.6c-25.6 0-44.8 19.2-44.8 44.8v579.2c0 25.6 19.2 44.8 44.8 44.8h272z m0 73.6l-134.4 25.6c-12.8 3.2-19.2 12.8-19.2 22.4 0 12.8 9.6 22.4 22.4 22.4h131.2v-70.4z" fill="" p-id="3297"></path><path d="M956.8 764.8c-64-83.2-163.2-137.6-275.2-137.6s-211.2 54.4-275.2 137.6c-9.6 12.8-9.6 28.8 0 41.6 64 83.2 163.2 137.6 275.2 137.6s211.2-54.4 275.2-137.6c6.4-16 6.4-32 0-41.6z m-336 108.8c-60.8-12.8-115.2-44.8-156.8-89.6 41.6-48 96-76.8 156.8-89.6-28.8 19.2-48 51.2-48 89.6s19.2 70.4 48 89.6z m57.6-44.8c-25.6 0-44.8-19.2-44.8-44.8s19.2-44.8 44.8-44.8 44.8 19.2 44.8 44.8-19.2 44.8-44.8 44.8z m60.8 44.8c28.8-19.2 51.2-51.2 51.2-89.6s-19.2-70.4-51.2-89.6c60.8 12.8 115.2 44.8 156.8 89.6-41.6 48-96 76.8-156.8 89.6zM672 412.8c-9.6-9.6-28.8-9.6-38.4 0s-9.6 28.8 0 38.4l6.4 6.4H320c-6.4 0-12.8 3.2-19.2 9.6-9.6 9.6-9.6 28.8 0 38.4 6.4 6.4 12.8 9.6 19.2 9.6h316.8l-6.4 6.4c-9.6 9.6-9.6 28.8 0 38.4s28.8 9.6 38.4 0l54.4-54.4c9.6-9.6 9.6-28.8 0-38.4L672 412.8z m-41.6-233.6c-9.6 9.6-9.6 28.8 0 38.4l6.4 6.4H320c-6.4 0-12.8 3.2-19.2 9.6-12.8 12.8-12.8 28.8 0 41.6 3.2 3.2 12.8 6.4 19.2 6.4h316.8l-6.4 6.4c-9.6 9.6-9.6 28.8 0 38.4s28.8 9.6 38.4 0l54.4-54.4c9.6-9.6 9.6-28.8 0-38.4L672 179.2c-12.8-9.6-28.8-9.6-41.6 0z" fill="" p-id="3298"></path></svg>