<svg t="1574044463267" class="icon" viewBox="0 0 1024 1024" version="1.1" xmlns="http://www.w3.org/2000/svg" p-id="3931" width="200" height="200"><path d="M915.2 569.6h-57.6V275.2c0-19.2-19.2-38.4-38.4-38.4H422.4v-57.6c0-25.6-19.2-51.2-51.2-51.2H128c-32 0-51.2 25.6-51.2 51.2v243.2c0 32 25.6 51.2 51.2 51.2h83.2v249.6c0 19.2 19.2 38.4 38.4 38.4h371.2v102.4c0 32 25.6 51.2 51.2 51.2h243.2c32 0 51.2-25.6 51.2-51.2V620.8c0-25.6-25.6-51.2-51.2-51.2zM153.6 204.8h198.4v198.4H153.6V204.8z m134.4 480V480h89.6c32 0 51.2-25.6 51.2-51.2V313.6h358.4v256h-115.2c-32 0-51.2 25.6-51.2 51.2v64H288z m601.6 160h-198.4v-198.4h198.4v198.4z" p-id="3932"></path></svg>