<svg t="1574045618597" class="icon" viewBox="0 0 1024 1024" version="1.1" xmlns="http://www.w3.org/2000/svg" p-id="1773" width="200" height="200"><path d="M512 0C229.231535 0 0 229.231535 0 512s229.231535 512 512 512 512-229.231535 512-512S794.768465 0 512 0z m0 955.729793c-245.069544 0-443.729793-198.639004-443.729793-443.729793S266.930456 68.270207 512 68.270207 955.729793 266.930456 955.729793 512 757.069544 955.729793 512 955.729793z" p-id="1774"></path><path d="M571.060581 477.870207a68.58888 68.58888 0 0 0-24.930788-24.930788v-350.539419h-68.259586v350.539419a68.227718 68.227718 0 1 0 93.190374 93.190374h177.394191c-16.570954 115.784232-116.102905 204.8-236.465394 204.8-131.962158 0-238.929793-106.967635-238.929793-238.929793a238.228714 238.228714 0 0 1 80.092946-178.456432l18.164315 49.925312 93.275353-142.913859-163.308879-49.511038 27.182738 74.696764C253.429378 321.742075 204.8 411.161494 204.8 512c0 169.661079 137.538921 307.2 307.2 307.2 158.114523 0 288.281494-119.48083 305.266722-273.070207h104.333278v-68.259586z" p-id="1775"></path></svg>