<svg t="1573707581004" class="icon" viewBox="0 0 1028 1024" version="1.1" xmlns="http://www.w3.org/2000/svg" p-id="15976" width="200" height="200"><path d="M569.472 930.954H107.771c-22.764 0-41.283-18.509-41.283-41.262v-68.019c0-44.662 32.502-87.86 96.594-128.4 45.19-28.584 92.99-47.283 103.67-51.307 50.683-22.282 80.804-49.93 89.011-58.06-21.391-33.311-36.848-86.38-45.542-122.097-43.469-27.761-52.316-79.258-50.34-107.597 0.184-25.861 9.436-47.468 25.933-61.548-7.644-82.56-4.178-174.776 66.944-206.044 16.015-39.23 58.767-62.239 117.202-62.239 40.079 0 64.04 7.47 83.297 13.476 10.086 3.144 17.777 5.545 26.737 6.687 19.517 2.473 37.079-5.176 38.318-5.73 12.81-6.235 27.658-5.483 39.797 2.038 12.17 7.486 19.503 20.557 19.543 34.924 0 4.613-0.512 18.033-5.765 34.012 29.42 36.716 30.925 88.673 28.867 181.228 17.915 14.172 27.996 36.905 28.216 64.609 1.787 26.127-6.948 78.464-50.683 106.317-8.422 31.078-31.815 104.944-59.842 138.71l-8.766-7.275-13.076 20.27c0.537 0.349 1.193 0.753 1.986 1.106l-0.512-0.215c-18.995-8.043-21.263-22.139-20.925-29.829l0.343-7.844 5.013-6.041c21.104-25.416 45.276-96.758 52.874-129.557l2.493-10.757 9.902-4.9c31.534-15.595 35.65-53.8 34.576-67.205l-0.077-1.869c0-16.373-5.054-27.023-15.022-31.662l-13.865-6.446 0.368-15.288c2.765-114.017-0.03-148.173-24.985-171.274l-12.954-11.991 8.008-15.734c3.691-7.25 5.468-14.505 6.328-19.856-11.494 4.127-32.256 9.6-56.054 6.585-13.06-1.664-23.429-4.9-34.411-8.32-18.253-5.694-36.772-11.469-69.74-11.469-41.425 0-69.795 14.612-75.888 39.08l-3.154 12.683-12.462 3.943c-42.547 13.455-56.366 67.41-44.81 174.935l1.74 16.2-14.602 7.224c-9.451 4.68-14.233 14.755-14.213 29.957l-0.077 1.884c-1.367 17.162 4.07 53.596 34.453 68.633l9.917 4.905 2.478 10.778c10.465 45.476 28.268 102.067 46.858 124.539l5.07 6.129 0.27 7.95c0.374 10.886-1.633 25.401-13.183 33.312-4.342 4.7-40.587 42.511-107.459 71.767l-1.172 0.476c-58.988 22.077-170.548 78.955-170.548 136.212v62.592h456.29v46.674z m218.742 65.234H697.82c-16.886 0-31.186-11.94-34.007-28.395l-0.087-0.528-6.707-45.414c-6.933-3.328-13.778-7.214-20.603-11.694l-45.809 17.956a36.495 36.495 0 0 1-11.294 1.802c-12.375 0-23.747-6.497-29.763-16.973l-45.368-76.503c-8.018-14.295-4.849-31.882 7.71-42.772l1.122-0.917 37.79-28.826c-0.2-3.614-0.302-7.26-0.302-10.987 0-3.733 0.103-7.378 0.302-10.988l-37.79-28.835c-13.507-10.532-17.142-28.831-8.842-43.664l0.291-0.502 45.712-77.02c6.517-9.999 17.515-15.964 29.404-15.964 3.968 0 7.87 0.666 11.597 1.987l0.742 0.276 44.626 17.541c6.37-4.065 13.2-7.884 20.444-11.422l6.835-46.26c2.775-16.184 17.388-28.395 34.007-28.395h90.394c17.188 0 31.816 12.84 33.71 29.404l6.636 44.928c6.932 3.328 13.772 7.214 20.602 11.7l45.835-17.967a36.5 36.5 0 0 1 11.269-1.792c12.375 0 23.741 6.492 29.762 16.968l45.394 76.528c7.988 14.296 4.803 31.872-7.736 42.742l-1.121 0.912-37.397 28.533c0.246 3.559 0.359 7.296 0.359 11.29 0 3.88-0.19 7.562-0.487 11.11l39.081 29.604c12.57 10.885 15.744 28.478 7.721 42.778l-0.281 0.486-45.712 77.025c-6.523 10-17.515 15.97-29.399 15.97h-0.005c-3.973 0-7.885-0.676-11.622-2.002l-0.645-0.246-44.944-17.515c-6.205 4.024-12.943 7.823-20.188 11.376l-6.835 46.265c-2.77 16.194-17.393 28.4-34.007 28.4z m-80.435-46.08h70.481l8.94-60.528 11.94-5.039c13.025-5.498 24.043-11.735 32.758-18.524l10.332-8.053 59.525 23.203 34.616-58.352-50.222-37.96 1.69-13.25c0.84-6.58 1.618-12.688 1.618-18.663 0-6.804-0.446-12.288-1.393-17.25l-2.678-13.997 50.565-38.585-34.631-58.368-58.788 23.107-10.286-7.71c-11.05-8.285-21.755-14.327-32.732-18.458l-12.688-4.788-9.026-61.122h-70.027l-8.94 60.529-11.939 5.038c-12.892 5.442-24.187 11.77-33.562 18.795l-10.286 7.71-58.787-23.106-34.627 58.368 49.802 38-1.694 13.185c-0.784 6.113-1.168 12.216-1.168 18.652 0 6.426 0.379 12.524 1.168 18.647l1.694 13.19-49.802 37.99 34.627 58.373 58.787-23.102 10.286 7.711c11.044 8.28 21.75 14.316 32.733 18.458l12.687 4.782 9.027 61.117z m40.96-106.65c-41.713 0-75.654-33.94-75.654-75.653 0-41.717 33.94-75.658 75.654-75.658s75.653 33.94 75.653 75.658c0.005 41.713-33.936 75.654-75.653 75.654z m0-105.23c-16.313 0-29.574 13.27-29.574 29.577s13.266 29.574 29.574 29.574 29.573-13.266 29.573-29.574-13.261-29.578-29.573-29.578z" p-id="15977"></path></svg>