<?xml version="1.0" standalone="no"?><!DOCTYPE svg PUBLIC "-//W3C//DTD SVG 1.1//EN" "http://www.w3.org/Graphics/SVG/1.1/DTD/svg11.dtd"><svg t="1574045404318" class="icon" viewBox="0 0 1024 1024" version="1.1" xmlns="http://www.w3.org/2000/svg" p-id="5662" xmlns:xlink="http://www.w3.org/1999/xlink" width="200" height="200"><defs><style type="text/css"></style></defs><path d="M165.888 272.384c-67.866624 0-122.88 55.013376-122.88 122.88s55.013376 122.88 122.88 122.88 122.88-55.013376 122.88-122.88-55.013376-122.88-122.88-122.88z m0 178.176c-30.539776 0-55.296-24.756224-55.296-55.296S135.348224 339.968 165.888 339.968 221.184 364.724224 221.184 395.264 196.427776 450.56 165.888 450.56zM858.112 43.008c-67.866624 0-122.88 55.013376-122.88 122.88s55.013376 122.88 122.88 122.88 122.88-55.013376 122.88-122.88-55.013376-122.88-122.88-122.88z m0 178.176c-30.539776 0-55.296-24.756224-55.296-55.296S827.572224 110.592 858.112 110.592 913.408 135.348224 913.408 165.888 888.651776 221.184 858.112 221.184zM686.08 735.232c-67.866624 0-122.88 55.013376-122.88 122.88s55.013376 122.88 122.88 122.88 122.88-55.013376 122.88-122.88-55.013376-122.88-122.88-122.88z m0 178.176c-30.539776 0-55.296-24.756224-55.296-55.296s24.756224-55.296 55.296-55.296 55.296 24.756224 55.296 55.296-24.756224 55.296-55.296 55.296z" p-id="5663"></path><path d="M236.46208 334.180352l528.658432-183.549952 25.526272 73.5232L261.98016 407.699456zM245.3504 415.47776l399.101952 358.44096-52.002816 57.901056-399.101952-358.44096zM871.723008 253.21472L746.25024 774.782976l-75.665408-18.202624 125.468672-521.568256zM488.095744 554.541056a30.826496 30.826496 0 0 0 42.995712 0l61.80864-60.68224a84.017152 84.017152 0 0 0 94.334976-16.244736c24.195072-23.740416 31.137792-60.338176 17.272832-91.049984a4.153344 4.153344 0 0 0-0.274432-0.47104c-0.06144-0.106496-0.114688-0.217088-0.18432-0.303104a5.435392 5.435392 0 0 0-0.57344-0.688128l-0.065536-0.077824h-0.016384a5.312512 5.312512 0 0 0-4.530176-1.429504c-0.073728 0-0.14336 0-0.217088 0.024576a5.12 5.12 0 0 0-0.557056 0.16384c-0.155648 0.04096-0.311296 0.090112-0.458752 0.147456-0.028672 0-0.057344 0.016384-0.086016 0.028672-0.147456 0.065536-0.270336 0.155648-0.4096 0.229376s-0.282624 0.147456-0.421888 0.233472a5.390336 5.390336 0 0 0-0.53248 0.425984c-0.073728 0.065536-0.159744 0.114688-0.233472 0.18432l-0.106496 0.106496-43.966464 43.139072a5.34528 5.34528 0 0 1-7.462912 0l-24.788992-24.33024a5.136384 5.136384 0 0 1-0.06144-7.258112l0.06144-0.06144 43.937792-43.15136a5.136384 5.136384 0 0 0-1.45408-8.54016c-31.260672-13.6192-68.562944-6.815744-92.766208 16.949248-18.690048 18.345984-27.312128 44.122112-23.539712 69.660672a5.496832 5.496832 0 0 0-0.1024 1.069056c0.200704 5.971968 3.964928 16.556032 4.685824 18.571264l-62.296064 61.157376a29.495296 29.495296 0 0 0 0.008192 42.196992z" p-id="5664"></path></svg>