<?xml version="1.0" standalone="no"?><!DOCTYPE svg PUBLIC "-//W3C//DTD SVG 1.1//EN" "http://www.w3.org/Graphics/SVG/1.1/DTD/svg11.dtd"><svg t="1575858439289" class="icon" viewBox="0 0 1024 1024" version="1.1" xmlns="http://www.w3.org/2000/svg" p-id="1125" xmlns:xlink="http://www.w3.org/1999/xlink" width="200" height="200"><defs><style type="text/css"></style></defs><path d="M284.444444 284.444444V227.555556a113.777778 113.777778 0 0 1 113.777778-113.777778h398.222222a113.777778 113.777778 0 0 1 113.777778 113.777778v398.222222a113.777778 113.777778 0 0 1-113.777778 113.777778h-56.888888v56.888888a113.777778 113.777778 0 0 1-113.777778 113.777778H227.555556a113.777778 113.777778 0 0 1-113.777778-113.777778V398.222222a113.777778 113.777778 0 0 1 113.777778-113.777778h56.888888z m56.888889 0h284.444445a113.777778 113.777778 0 0 1 113.777778 113.777778v284.444445h56.888888a56.888889 56.888889 0 0 0 56.888889-56.888889V227.555556a56.888889 56.888889 0 0 0-56.888889-56.888889H398.222222a56.888889 56.888889 0 0 0-56.888889 56.888889v56.888888zM227.555556 341.333333a56.888889 56.888889 0 0 0-56.888889 56.888889v398.222222a56.888889 56.888889 0 0 0 56.888889 56.888889h398.222222a56.888889 56.888889 0 0 0 56.888889-56.888889V398.222222a56.888889 56.888889 0 0 0-56.888889-56.888889H227.555556z m85.333333 170.666667h227.555555a28.444444 28.444444 0 0 1 0 56.888889h-227.555555a28.444444 28.444444 0 0 1 0-56.888889z m0 170.666667h227.555555a28.444444 28.444444 0 1 1 0 56.888889h-227.555555a28.444444 28.444444 0 1 1 0-56.888889z" fill="#1171F6" p-id="1126"></path></svg>