<?xml version="1.0" standalone="no"?><!DOCTYPE svg PUBLIC "-//W3C//DTD SVG 1.1//EN" "http://www.w3.org/Graphics/SVG/1.1/DTD/svg11.dtd"><svg t="1574044302505" class="icon" viewBox="0 0 1024 1024" version="1.1" xmlns="http://www.w3.org/2000/svg" p-id="2562" xmlns:xlink="http://www.w3.org/1999/xlink" width="200" height="200"><defs><style type="text/css"></style></defs><path d="M64.499501 150.749376l0 191.494359 893.340171 0L957.839673 150.749376 64.499501 150.749376 64.499501 150.749376zM258.320858 295.276027c-27.04189 0-48.978505-21.839401-48.978505-48.776913 0-26.942629 21.936615-48.776913 48.978505-48.776913 27.040866 0 48.978505 21.833261 48.978505 48.776913C307.299363 273.436626 285.361725 295.276027 258.320858 295.276027L258.320858 295.276027zM64.499501 610.604762l412.056754 0 0 123.57855c-12.19167 7.02295-22.030759 17.641799-28.055986 30.401404L206.507796 764.584716l0 69.224618 248.25306 0c12.548804 17.553795 33.132608 29.014824 56.406684 29.014824 23.280216 0 43.859927-11.460006 56.413847-29.014824l248.251014 0 0-69.224618L573.834812 764.584716c-6.02625-12.759605-15.864316-23.378453-28.05087-30.401404L545.783942 610.604762l412.056754 0L957.840696 419.107333 64.499501 419.107333 64.499501 610.604762 64.499501 610.604762zM258.320858 466.077088c27.040866 0 48.978505 21.837354 48.978505 48.776913 0 26.943652-21.937638 48.776913-48.978505 48.776913-27.04189 0-48.978505-21.833261-48.978505-48.776913C209.34747 487.914442 231.278969 466.077088 258.320858 466.077088L258.320858 466.077088zM258.320858 466.077088" p-id="2563"></path></svg>