<?xml version="1.0" standalone="no"?><!DOCTYPE svg PUBLIC "-//W3C//DTD SVG 1.1//EN" "http://www.w3.org/Graphics/SVG/1.1/DTD/svg11.dtd"><svg t="1574046152019" class="icon" viewBox="0 0 1024 1024" version="1.1" xmlns="http://www.w3.org/2000/svg" p-id="5749" xmlns:xlink="http://www.w3.org/1999/xlink" width="200" height="200"><defs><style type="text/css"></style></defs><path d="M512 0C229.696 0 0 229.696 0 512c0 99.392 28.928 192 78.08 270.592-8.704 14.464-14.08 31.232-14.08 49.408 0 52.928 43.072 96 96 96 14.912 0 28.928-3.712 41.536-9.856A508.8 508.8 0 0 0 512 1024c282.304 0 512-229.696 512-512s-229.696-512-512-512z m446.4 480h-129.664a318.592 318.592 0 0 0-222.4-272.192A95.808 95.808 0 0 0 544 133.888V65.6A448.064 448.064 0 0 1 958.4 480zM160 736c-11.2 0-21.76 2.304-31.808 5.824A444.16 444.16 0 0 1 65.6 544h129.664A318.336 318.336 0 0 0 480 828.8v129.6a444.8 444.8 0 0 1-233.152-86.144c5.76-12.288 9.152-25.856 9.152-40.256 0-52.928-43.072-96-96-96z m268.8-464.96c11.328 19.904 29.376 35.264 51.2 43.072v107.776a95.872 95.872 0 0 0-58.112 58.112H259.264A254.976 254.976 0 0 1 428.8 271.04zM421.952 544c9.664 27.136 30.976 48.448 58.112 58.112v162.624A254.72 254.72 0 0 1 259.2 544h162.688z m122.112 58.112c27.136-9.664 48.448-30.976 58.112-58.112h162.624A254.72 254.72 0 0 1 544 764.8V602.048zM602.112 480a95.872 95.872 0 0 0-58.112-58.112V314.112c21.824-7.808 39.872-23.168 51.2-43.072A254.976 254.976 0 0 1 764.8 480H602.048zM480 65.6v68.288c-32.256 11.52-56.448 39.488-62.336 73.92A318.592 318.592 0 0 0 195.2 480H65.6A448 448 0 0 1 480 65.6z m64 892.8v-129.664A318.336 318.336 0 0 0 828.8 544h129.6A448.064 448.064 0 0 1 544 958.4z" p-id="5750"></path></svg>