<?xml version="1.0" standalone="no"?><!DOCTYPE svg PUBLIC "-//W3C//DTD SVG 1.1//EN" "http://www.w3.org/Graphics/SVG/1.1/DTD/svg11.dtd"><svg t="1574078488733" class="icon" viewBox="0 0 1043 1024" version="1.1" xmlns="http://www.w3.org/2000/svg" p-id="10558" xmlns:xlink="http://www.w3.org/1999/xlink" width="203.7109375" height="200"><defs><style type="text/css"></style></defs><path d="M961.382607 71.638543a242.940891 242.940891 0 0 0-343.102186-1.16081l-210.968874 209.542737a242.808227 242.808227 0 0 0-1.127644 343.035854l11.541765 11.608097 50.412308-50.14698-11.508599-11.608097a171.600842 171.600842 0 0 1 0.829149-242.476567l210.935709-209.509571a171.733506 171.733506 0 0 1 242.542899 0.795984l11.508599 11.541765a171.733506 171.733506 0 0 1-0.795984 242.509733l-108.286964 107.524146 50.113814 50.412308L971.763563 426.182996a242.808227 242.808227 0 0 0 1.127643-343.035854l-11.508599-11.508599z m-336.104162 317.531206l-50.478639 50.14698 11.541765 11.608097a171.501344 171.501344 0 0 1-0.762818 242.476567l-210.968874 209.509571a170.440032 170.440032 0 0 1-120.823709 49.748987h-0.630154a170.274202 170.274202 0 0 1-121.155368-50.644469l-11.475433-11.541765a171.766672 171.766672 0 0 1 0.795983-242.509733l128.849879-127.921231-50.113814-50.412308-128.849878 127.921231a242.808227 242.808227 0 0 0-1.094478 343.06902l11.475433 11.574932a241.183093 241.183093 0 0 0 171.335514 71.804372h0.862316a240.950931 240.950931 0 0 0 170.904356-70.477733l210.935709-209.542737a242.576065 242.576065 0 0 0 1.193976-343.035854l-11.541766-11.641263z" p-id="10559"></path></svg>