<?xml version="1.0" standalone="no"?><!DOCTYPE svg PUBLIC "-//W3C//DTD SVG 1.1//EN" "http://www.w3.org/Graphics/SVG/1.1/DTD/svg11.dtd"><svg t="1574045262788" class="icon" viewBox="0 0 1024 1024" version="1.1" xmlns="http://www.w3.org/2000/svg" p-id="4122" xmlns:xlink="http://www.w3.org/1999/xlink" width="200" height="200"><defs><style type="text/css"></style></defs><path d="M987.2 222.4H294.4c-20.8 0-36.8-16-36.8-36.8s16-36.8 36.8-36.8h692.8c20.8 0 36.8 16 36.8 36.8s-16 36.8-36.8 36.8z" p-id="4123"></path><path d="M264 331.2h-224c-20.8 0-36.8-16-36.8-36.8V76.8c0-20.8 16-36.8 36.8-36.8h224c20.8 0 36.8 16 36.8 36.8v219.2c0 19.2-16 35.2-36.8 35.2zM76.8 259.2h150.4V112H76.8v147.2z m905.6 616H291.2c-20.8 0-36.8-16-36.8-36.8s16-36.8 36.8-36.8h692.8c20.8 0 36.8 16 36.8 36.8s-17.6 36.8-38.4 36.8z" p-id="4124"></path><path d="M260.8 984h-224c-20.8 0-36.8-16-36.8-36.8V728c0-20.8 16-36.8 36.8-36.8h224c20.8 0 36.8 16 36.8 36.8v219.2c0 20.8-17.6 36.8-36.8 36.8zM73.6 912H224v-145.6H73.6V912z m659.2-345.6H40c-20.8 0-36.8-16-36.8-36.8s16-36.8 36.8-36.8h692.8c20.8 0 36.8 16 36.8 36.8-1.6 20.8-17.6 36.8-36.8 36.8z" p-id="4125"></path><path d="M987.2 675.2h-224c-20.8 0-36.8-16-36.8-36.8V420.8c0-20.8 16-36.8 36.8-36.8h224c20.8 0 36.8 16 36.8 36.8V640c-1.6 19.2-17.6 35.2-36.8 35.2z m-188.8-72h150.4v-145.6h-150.4v145.6z" p-id="4126"></path></svg>